<svg xmlns="http://www.w3.org/2000/svg" aria-hidden="true"
    style="position:absolute;width:0;height:0;overflow:hidden">
    <defs>
        <symbol id="closeMobile" viewBox="0 0 32 32">
            <path
                d="M32 3.368l-3.368-3.368-13.474 11.789-11.789-11.789-3.368 3.368 11.789 11.789-11.789 13.474 3.368 3.368 11.789-13.474 13.474 13.474 3.368-3.368-13.474-13.474 13.474-11.789z"></path>
        </symbol>
        <symbol id="icon-menu" viewBox="0 0 48 32">
            <path d="M0 5.4v-5.4h48v5.4h-48zM0 18.6h48v-5.2h-48v5.2zM0 32h48v-5.4h-48v5.4z"></path>
        </symbol>
        <symbol id="icon-ok" viewBox="0 0 34 32">
            <path fill="#2196f3" style="fill: var(--color1, #2196f3)"
                d="M4.267 0h25.6c2.356 0 4.267 1.91 4.267 4.267v23.467c0 2.356-1.91 4.267-4.267 4.267h-25.6c-2.356 0-4.267-1.91-4.267-4.267v-23.467c0-2.356 1.91-4.267 4.267-4.267z"></path>
            <path fill="#fff" style="fill: var(--color2, #fff); stroke: var(--color2, #fff)"
                stroke="#fff" stroke-linejoin="miter" stroke-linecap="butt" stroke-miterlimit="4"
                stroke-width="0.4267"
                d="M8.533 16.64l-0.213-0.213-2.133 1.92v0.213l7.467 7.253h0.213l16.213-15.36v-0.213l-2.133-1.92-14.080 13.44-5.333-5.12z"></path>
        </symbol>
        
        <symbol id="icon-cuadro" viewBox="0 0 32 32">
            <path
                d="M28.4 4.3v23.4H3.6V4.3h24.8zm0-3.3H3.6C1.6 1 0 2.5 0 4.3v23.4C0 29.5 1.6 31 3.6 31h24.8c2 0 3.6-1.5 3.6-3.3V4.3C32 2.5 30.4 1 28.4 1z" />
        </symbol>

        <symbol id="icon-mail" viewBox="0 0 32 32">
            <path
                d="M28 4H4a3 3 0 0 0-3 3v18a3 3 0 0 0 3 3h24a3 3 0 0 0 3-3V7a3 3 0 0 0-3-3zm-.6 6.4L16.8 17c-.5.3-1.1.3-1.6 0L4.6 10.4C4.2 10 4 9.7 4 9.3c0-1 1-1.6 2-1l10 6.2 10-6.3a1.3 1.3 0 1 1 1.4 2.2z" />
        </symbol>

        <symbol id="icon-tel" viewBox="0 0 32 32">
            <path
                d="m27.4 20.9-4.2-.5c-1-.1-2 .2-2.7 1l-3 3a24.9 24.9 0 0 1-11-11l3.1-3c.7-.7 1-1.7 1-2.7L10 3.5c-.2-1.7-1.6-3-3.3-3H3.9A3.3 3.3 0 0 0 .6 4 28.1 28.1 0 0 0 27 30.3c1.9.1 3.4-1.4 3.4-3.3V24c0-1.6-1.2-3-2.9-3.2z" />
        </symbol>

        <symbol id="icon-persona" viewBox="0 0 32 32">
            <path
                d="M16 16a8 8 0 1 0 0-16 8 8 0 0 0 0 16zm0 4c-5.3 0-16 2.7-16 8v2c0 1.1.9 2 2 2h28a2 2 0 0 0 2-2v-2c0-5.3-10.7-8-16-8z" />
        </symbol>
        
        <symbol id="icon-enviar-icono" viewBox="0 0 32 32">
            <path fill="#fff" d="M32 0 0 18l10.2 3.8L26 7 14 23.2V32l5.7-6.7L27 28l5-28z"
                style="fill:var()" />
        </symbol>
        
        <symbol id="close" viewBox="0 0 32 32">
            <path fill="#fff" d="M32 16a16 16 0 1 1-32 0 16 16 0 0 1 32 0z"
                style="fill:var(--color1, #fff)" />
            <path
                d="m22.4 10.8-1.2-1.2-4.7 4.7-4.7-4.7-1.1 1.2 4.7 4.7-4.7 4.7 1.1 1.1 4.7-4.7 4.7 4.7 1.2-1.1-4.7-4.7 4.7-4.7z"
                style="" />
        </symbol>

        <symbol id="antena" viewBox="0 0 30 32">
            <path fill=""
                d="m29.9 22.1-8.5-8.5 1-4.6A2.2 2.2 0 1 0 21 7.7l-5 .6-8-8.1a.5.5 0 0 0-.4-.2.5.5 0 0 0-.4.2L5.8 1.7c-.2.2-.2.5 0 .7l.8.8A15 15 0 0 0 9.1 21l.2.1V27.7H2.7a2.7 2.7 0 0 0-2.6 2.7v1c0 .4.2.6.5.6h24.5c.3 0 .6-.2.6-.5v-1.1c0-1.5-1.2-2.7-2.7-2.7h-6.4V25a14.8 14.8 0 0 0 10-1.5l.9.8a.5.5 0 0 0 .7 0l1.6-1.5c.2-.2.2-.5 0-.7zM22.4 6.2a1 1 0 1 1 .7 1.9 1 1 0 0 1-.7-1.9zM21 9.7l-.6 3-1.2-1.2 1.8-1.8zm-.6-.9-2 2-1.4-1.5 3.4-.5zm2.6 20c.9 0 1.6.7 1.6 1.6v.5H1.2v-.5c0-.9.7-1.6 1.6-1.6h20.3zm-7.5-2.1v1h-5.3v-1h5.3zm-5.3-1.1v-4c0-1.4 1.2-2.4 2.7-2.4s2.6 1 2.6 2.4v4h-5.3zm6.4-1.7v-2.3c0-2-1.7-3.5-3.7-3.5A3.8 3.8 0 0 0 9.7 20 13.9 13.9 0 0 1 7.4 4L26 22.7a13.8 13.8 0 0 1-9.3 1.2zm11.3-.7L7 2l.7-.7 8 8 13 13.2-.7.7z"
                style="" />
            <path fill=""
                d="M13 20.3a1.6 1.6 0 1 0 0 3.2 1.6 1.6 0 1 0 0-3.2zm.3 2-.3.1a.5.5 0 0 1 0-1 .5.5 0 0 1 .3.8z"
                style="fill:var(--color2, #2196F3)" />
        </symbol>

        <symbol id="reloj" viewBox="0 0 31 32">
            <path fill=""
                d="M29.3 13.7a13.7 13.7 0 1 0-17.9 13.1h.2a.6.6 0 0 0 .3 0 .6.6 0 0 0 .2-.4l3.5-11a1.7 1.7 0 1 0-.8-3.2l-4.5-4.6a.6.6 0 0 0-.8.8L14 13c-.3.7-.1 1.6.5 2l-3.3 10.5a12.6 12.6 0 1 1 9.5-.3l-.4-1.6a.6.6 0 0 0-.9-.4L16 26.3a.6.6 0 0 0 .2 1l4.4 1.4a.6.6 0 0 0 .7-.7l-.4-1.6a13.7 13.7 0 0 0 8.4-12.7zm-13.7-.5a.6.6 0 1 1 0 1.1.6.6 0 0 1 0-1.1zm1.9 13.3 2-1.8.5 2.6-2.5-.8z"
                style=")" />
            <path fill=""
                d="M15 2.9V4a.6.6 0 1 0 1.1 0V2.9a.6.6 0 1 0-1 0zM4.7 13.2a.6.6 0 1 0 0 1.1h1.2a.6.6 0 1 0 0-1.1H4.7zm21.8 1.1a.6.6 0 1 0 0-1.1h-1.2a.6.6 0 1 0 0 1.1h1.1z"
                style="fill:var(--color2, #2196F3)" />
        </symbol>

        <symbol id="pc" viewBox="0 0 32 32">
            <path fill=""
                d="M15 15h1v4.8h-1V15zm4.2 2.1h1v2.7h-1V17zm-8.5 1.6h1v1h-1v-1zm-3.2-.5h1v1.6h-1v-1.6z"
                style="fill:var(--color2, #2196F3)" />
            <path fill=""
                d="M1.6 28.3h25.6c.9 0 1.6-.7 1.6-1.6v-2.1c0-1-.7-1.6-1.6-1.6h-.5V9.7l3-2.9a1.6 1.6 0 1 0-.8-.8l-2.3 2.2V7c0-1-.7-1.6-1.6-1.6H3.7C3 5.4 2.1 6 2.1 7v16h-.5c-.9 0-1.6.7-1.6 1.6v2c0 1 .7 1.7 1.6 1.7zM30.4 4.8a.5.5 0 1 1 0 1 .5.5 0 0 1 0-1zM3.2 7c0-.3.2-.6.5-.6h21.4c.2 0 .5.3.5.6v2.2l-1 1V8c0-.3-.3-.5-.6-.5H4.8c-.3 0-.5.2-.5.5v13.4c0 .3.2.5.5.5H24c.3 0 .5-.2.5-.5v-9.7l1-1V23H3.3V7zM8 13.9a1.6 1.6 0 1 0 1.1 2.8l1.9.9.6-.1 4-4.5 3.8 3 .7-.1 3.3-3.2v8.1h-18V8.6h18v2.6l-3.7 3.6-4-3a.5.5 0 0 0-.6.2l-4 4.4-1.5-.7v-.2c0-.9-.7-1.6-1.6-1.6zm.5 1.6a.5.5 0 1 1-1 0 .5.5 0 0 1 1 0zm3.2 8.5h5.4v.6c0 .3-.3.5-.6.5h-4.2a.5.5 0 0 1-.6-.5V24zm-10.6.6c0-.3.2-.6.5-.6h9v.6c0 .8.8 1.6 1.7 1.6h4.2c1 0 1.6-.8 1.6-1.6V24h9c.4 0 .6.3.6.6v2c0 .4-.2.6-.5.6H1.6a.5.5 0 0 1-.5-.5v-2.1z"
                style="" />
        </symbol>

        <symbol id="instagram" viewBox="0 0 32 32">
            <path fill=""
                d="M32 9.4a11.7 11.7 0 0 0-.8-3.9 7.8 7.8 0 0 0-1.8-2.8A7.9 7.9 0 0 0 26.5.8c-1-.4-2.1-.6-3.8-.7A110.4 110.4 0 0 0 5.6.8a7.8 7.8 0 0 0-2.9 1.9A7.9 7.9 0 0 0 1 5.5C.5 6.5.2 7.7.2 9.4a110.4 110.4 0 0 0 .7 17 7.9 7.9 0 0 0 1.8 3c.8.7 1.8 1.4 2.9 1.8 1 .4 2.2.6 3.9.7l6.6.1 6.6-.1a11.7 11.7 0 0 0 3.8-.7 8.2 8.2 0 0 0 4.7-4.7c.4-1 .7-2.2.8-3.9V9.4zm-3 13a8.8 8.8 0 0 1-.5 3 5.3 5.3 0 0 1-3 3c-.6.3-1.4.6-3 .6l-6.4.1H9.6a8.8 8.8 0 0 1-3-.6 5 5 0 0 1-1.8-1.2 5 5 0 0 1-1.2-1.9 8.8 8.8 0 0 1-.5-3L3 16V9.5c.1-1.5.4-2.4.6-3l1.2-1.8a5 5 0 0 1 1.8-1.2 8.8 8.8 0 0 1 3-.5l6.5-.1 6.4.1c1.6 0 2.4.3 3 .6a5 5 0 0 1 3 3c.2.6.5 1.4.6 3v12.9z"
                style="" />
            <path fill=""
                d="M16 7.8a8.2 8.2 0 1 0 0 16.4 8.2 8.2 0 0 0 0-16.4zm0 13.5a5.3 5.3 0 1 1 0-10.6 5.3 5.3 0 0 1 0 10.6zM26.6 7.5a2 2 0 1 1-3.8 0 2 2 0 0 1 3.8 0z"
                style="" />
        </symbol>

        <symbol id="logo6" viewBox="0 0 64 32">
            <path fill=""
                d="M32.3 16.6c-.3-.4-.4-.8-.4-1.2v-1.7c0-.6.1-1 .3-1.3s.7-.4 1.3-.4c.6 0 1 .2 1.2.4.2.3.4.7.3 1v.4h-1V13a.4.4 0 0 0-.1-.2.6.6 0 0 0-.4-.1.6.6 0 0 0-.4 0 .5.5 0 0 0-.1.3v3.2l.3.1c0 .1.1 0 .2 0h.4a.4.4 0 0 0 .1-.3v-.8h1v.4c0 .3 0 .7-.3 1-.2.3-.6.4-1.2.4s-1-.1-1.2-.4zm4 0c-.2-.3-.3-.7-.3-1.2v-1.8c0-.5.1-.9.4-1.2s.6-.4 1.2-.4 1 .2 1.3.4c.2.3.4.7.4 1.2v1.8c0 .5-.2 1-.4 1.2s-.7.4-1.3.4c-.5 0-1-.1-1.2-.4zm1.8-.4.1-.6v-2.2a1 1 0 0 0-.1-.5l-.2-.2h-.5l-.2.2a1 1 0 0 0-.2.5v2.3a1 1 0 0 0 .2.5l.2.1c0 .1.1 0 .2 0a.7.7 0 0 0 .5-.1zm2.3-4.1h1.1l.8 3.4.8-3.4h1l.2 4.9h-.8v-3.4l-.9 3.4H42l-.8-3.4V17h-.8v-5zm5 0h1.7c1 0 1.5.4 1.5 1.4 0 .9-.5 1.3-1.5 1.3h-.6V17h-1v-5zm1.5 2h.6a.8.8 0 0 0 .1-.6V13l-.1-.1-.1-.1h-.9v1.4h.4zm3.2-2h1l1.2 4.9h-1l-.2-1.2h-1L50 17h-1l1.2-5zm.9 3.2-.4-2-.4 2h.8zm2.2-3.2h.7l1.4 2.8V12h.9V17h-.7L54 14v3h-.9v-5zm5 3-1.2-3h1l.7 2 .6-2h1L59 15V17h-1V15zm-24.4 4v.2H33v2h-.3v-2h-.9v-.2h2zm2.7 2.2h-.3a.1.1 0 0 1-.1 0l-.3-.6h-1.1l-.3.6H34l1-2.2h.4l1 2.2zm-1.7-.8h1l-.5-1a1.6 1.6 0 0 1 0-.1v.1h-.1l-.4 1zm3.4.6h.2a1.1 1.1 0 0 0 .3 0l.2-.1v-.5h-.5v-.2h.8v.8a1.5 1.5 0 0 1-.7.2h-.8a1 1 0 0 1-.4-.3c-.2 0-.2-.2-.3-.3a1.1 1.1 0 0 1-.1-.5l.1-.4a1.1 1.1 0 0 1 .7-.6 1.7 1.7 0 0 1 .8-.1 1.4 1.4 0 0 1 .5.1l.1.2v.1h-.2a1.3 1.3 0 0 1-.1 0 1.3 1.3 0 0 0-1-.1.8.8 0 0 0-.5.5 1 1 0 0 0 0 .7l.2.3a.9.9 0 0 0 .7.2zm3.3 0h1.1v.2h-1.4v-2.2h.3v2zm2.3.2h-.4v-2.2h.4v2.2zm1.3-2.2 1.5 1.7v-1.7h.3v2.2h-.2L45 19.6v1.7h-.3v-2.2h.2zm4.4 0v.2h-1.2v.8h1v.2h-1v.8h1.2v.2H48v-2.2h1.6zM12.8 5.3 28.4 9v13.4l-15.6-3.8V5.3zm-1-1.2v15.2l17.6 4.3V8.5L11.8 4z"
                style="" />
            <path fill=""
                d="M21.2 30.7 3.6 26.4V11.2l17.6 4.3v15.2zM12 5.1l15.4 3.8-6.5 5.6-15.4-3.8 6.6-5.6zm-.2-1-8.2 7 17.6 4.4 8.1-7L11.8 4zm10.4 25.7 7.2-6.2-7.2-1.7v8z"
                style="" />
        </symbol>

        <symbol id="logo5" viewBox="0 0 64 32">
            <path fill=""
                d="m16.2 27 .2.7-.1.4-.3.3c-.2.2-.6.3-1 .3h-1.7v-3.8H15c.3 0 .7.1 1 .3l.2.3c.1 0 0 .2 0 .4l-.1.6a1 1 0 0 1-.5.2c.2 0 .4.2.6.4zm-2.1-.5h.7l.5-.1.1-.2v-.4l-.1-.2a.8.8 0 0 0-.5 0h-.7v.9zm1.3 1.4.1-.1c.1-.1 0-.2 0-.2v-.3l-.1-.1a.8.8 0 0 0-.5-.2H14v1h1.3zm4.3.8-1-1.5h-.3v1.5h-.9v-3.8h1.6c.4 0 .8.1 1 .4.3.1.4.4.4.7s0 .6-.2.8l-.8.4 1 1.5h-.8zm-1.3-2h.6c.5 0 .7-.2.7-.6V26l-.2-.2a.8.8 0 0 0-.5-.1h-.7v1.1zm5.8 1.2h-1.7l-.3.8h-.8l1.5-3.7h.9l1.5 3.7h-.9l-.2-.8zm-.3-.6-.6-1.5-.6 1.5H24zm5.9 1.4H29L27 26v2.6h-.8v-3.8h.8l1.9 2.6v-2.6h.8v3.8zm4.6-1a1.7 1.7 0 0 1-.7.7 2.6 2.6 0 0 1-1.2.3h-1.4v-3.8h1.4c.5 0 .9.1 1.2.3.3.1.6.3.7.6a2 2 0 0 1 0 2zm-.9 0c.2-.3.4-.6.4-1s-.2-.6-.4-.8a1.5 1.5 0 0 0-1-.3h-.6V28h.6c.3 0 .7 0 1-.3zM24.7 4s10.5 3.7 10.3 9V22s-10.6-3.7-10.3-9V4.2zM44.4 20a15.3 15.3 0 0 1 6.7-2.3v-2.8a13.5 13.5 0 0 0-6.7 5z"
                style="" />
            <path fill=""
                d="M43.2 20.7a14 14 0 0 1 7.8-6.5v-8s-15 5.2-14.6 12.7v12.7l1.7-.7v-1.2c.3-3.5 2.1-6.7 5-9z"
                style="" />
            <path fill=""
                d="M41.7 25.4c.1-.9.3-1.7.6-2.6a11.7 11.7 0 0 0-3.2 7.7L42 29c-.3-1.2-.4-2.5-.3-3.7zm.6 0a11.5 11.5 0 0 0 .2 3.4c4.1-2.3 8.7-5.7 8.5-10v-.3a14 14 0 0 0-7.8 3.4c-.5 1.1-.8 2.3-.9 3.6z"
                style="" />
        </symbol>

        <symbol id="logo4" viewBox="0 0 64 32">
            <path fill=""
                d="M14.6 12.8c-1.5 0-2.6 1-2.6 2.3 0 1.3 1.1 2.4 2.6 2.4s2.6-1 2.6-2.4c0-1.3-1.2-2.3-2.6-2.3zm19.3-.8c0-1.7-.8-3.4-2.2-4.7s-3.4-2-5.4-2c-2 0-3.9.7-5.3 2s-2.2 3-2.2 4.8v9.8s15.1-1.5 15.1-9.8zM6.6 25.1c0 1.3.6 2.5 1.6 3.3s2.3 1.4 3.7 1.4 2.8-.5 3.8-1.3 1.5-2.1 1.5-3.4v-6.8S6.6 19.3 6.6 25zm5.3 1.3-.7-.2a1.2 1.2 0 0 1-.6-1.3l.3-.6a1.5 1.5 0 0 1 1.5-.3l.7.5c.2.2.2.4.2.6l-.1.5-.3.4a1.5 1.5 0 0 1-1 .4zm9.7-2.2v2.5H21v-2.5h.6zm1 1v.5h-1.2v-.4h1.2zm.1-1v.4h-1.3v-.4h1.3zm2.5 1.2v.1l-.1.6-.3.4a1.1 1.1 0 0 1-.8.3 1 1 0 0 1-.8-.3 1.6 1.6 0 0 1-.3-1v-.1l.1-.5c0-.2.2-.3.3-.4l.3-.3a1.1 1.1 0 0 1 .9 0 1 1 0 0 1 .6.7v.5zm-.6.1v-.1a1.3 1.3 0 0 0-.1-.6.5.5 0 0 0-.2-.2h-.5a.5.5 0 0 0-.2.2v.2l-.1.4v.1a1.4 1.4 0 0 0 .1.6.5.5 0 0 0 .5.3.5.5 0 0 0 .4-.3.8.8 0 0 0 0-.2l.1-.4zm2.3.6V26a.2.2 0 0 0-.1-.1l-.2-.1-.2-.2a3.3 3.3 0 0 1-.4 0l-.2-.2a.7.7 0 0 1-.2-.3.6.6 0 0 1-.1-.3v-.2a.7.7 0 0 1 .3-.3 1 1 0 0 1 .3-.1 1.4 1.4 0 0 1 .9 0 .8.8 0 0 1 .3.3l.1.4h-.5a.4.4 0 0 0 0-.2.3.3 0 0 0-.2-.1.5.5 0 0 0-.2 0h-.3a.3.3 0 0 0-.1 0 .3.3 0 0 0 0 .2v.2l.2.2h.3l.3.2c.1 0 .2 0 .3.2l.2.2a.7.7 0 0 1 0 .3v.3l-.3.2-.2.1a1.4 1.4 0 0 1-.8 0 1.1 1.1 0 0 1-.3-.1.7.7 0 0 1-.4-.7h.6v.4H26.9V26zm2-2v2.6h-.5v-2.5h.5zm.8 0v.5h-2v-.4h2zm2 2.2v.4h-1.3v-.4h1.3zm-1.2-2.1v2.5H30v-2.5h.5zm1 1v.4h-1.1v-.4h1.2zm.2-1v.4h-1.3v-.4h1.3zm.4 0h1.4l.3.3.2.4-.1.4a.7.7 0 0 1-.2.2l-.3.2h-1v-.3h.8l.2-.2a.4.4 0 0 0 0-.2v-.2l-.2-.2a.5.5 0 0 0-.2 0h-.4v2.1H32v-2.5zm1.4 2.5-.6-1.1h.6l.6 1.1h-.6zm2.8-.9h-.7v-.4H36.5l.2-.2v-.4l-.2-.2h-.7v2.1h-.5v-2.5h1.5a.8.8 0 0 1 .4.8v.5c0 .2-.3.2-.4.2l-.5.1zm3 .5v.4H38v-.4h1.3zm-1.2-2.1v2.5h-.5v-2.5h.5zm1 1v.4H38v-.4h1.2zm.2-1v.4H38v-.4h1.3zm1.5 0v2.5h-.5v-2.5h.5zm.8 0v.4h-2v-.4h2zm2 2.1v.4h-1.3v-.4h1.4zm-1.1-2.1v2.5h-.6v-2.5h.6zm1 1v.4h-1.2v-.4h1.2zm.2-1v.4h-1.4v-.4h1.4zm.3 0h1.4l.4.3v.8a.7.7 0 0 1-.2.2l-.3.2h-1v-.3H45.2v-.2a.4.4 0 0 0 .1-.2v-.2l-.1-.2a.5.5 0 0 0-.3 0h-.4v2.1H44v-2.5zm1.4 2.5-.6-1.1h.6l.6 1.1h-.6zm2.2-.6V26a.2.2 0 0 0 0-.1l-.2-.1-.3-.2a3.3 3.3 0 0 1-.3 0l-.3-.2a.7.7 0 0 1-.2-.3.6.6 0 0 1 0-.3v-.2a.7.7 0 0 1 .2-.3 1 1 0 0 1 .3-.1 1.4 1.4 0 0 1 .9 0 .8.8 0 0 1 .3.3l.2.4h-.6a.4.4 0 0 0 0-.2.3.3 0 0 0-.2-.1.5.5 0 0 0-.2 0H47a.3.3 0 0 0-.2 0 .3.3 0 0 0 0 .2v.2h.1l.2.2h.2l.4.2s.2 0 .2.2.2.1.2.2a.7.7 0 0 1 0 .3v.3l-.2.2-.3.1a1.4 1.4 0 0 1-.8 0 1.1 1.1 0 0 1-.3-.1l-.2-.3-.1-.4h.5v.2l.1.2h.7l.1-.2z"
                style="" />
        </symbol>

        <symbol id="logo3" viewBox="0 0 64 32">
            <path fill=""
                d="m22 29.7.2.1a1 1 0 0 1-.4.3h-.5a1.4 1.4 0 0 1-.5 0 1 1 0 0 1-.6-.6l-.1-.4a1 1 0 0 1 .7-1l.5-.1a1.3 1.3 0 0 1 .8.2v.2H21.7a.9.9 0 0 0-.3-.2 1.2 1.2 0 0 0-.5 0 1 1 0 0 0-.3.2.8.8 0 0 0-.2.3.9.9 0 0 0 0 .4v.3a.8.8 0 0 0 .4.5H21.5a.8.8 0 0 0 .4-.2zm3.8-.6-.1.4-.2.4a1 1 0 0 1-.4.2h-1a1.2 1.2 0 0 1-.4-.2 1 1 0 0 1-.3-.4v-.9l.3-.3.4-.2c.3-.2.6-.2 1 0l.4.2a1 1 0 0 1 .3.8zm-.4 0a1 1 0 0 0 0-.4.7.7 0 0 0-.5-.4h-.7l-.3.1a.7.7 0 0 0-.2.3v.7a.7.7 0 0 0 .5.5h.7l.3-.2a.8.8 0 0 0 .2-.3 1 1 0 0 0 0-.3zm3 .3v.1a2 2 0 0 1 0-.1l1-1.4h.3v2.2h-.3v-1.8l-.8 1.4a.2.2 0 0 1-.2 0h-.1l-.9-1.4v1.8h-.3V28h.3l1 1.4zm3.1 0v.7h-.3V28H32.4l.3.2.1.2v.3a.6.6 0 0 1-.2.5.8.8 0 0 1-.3.1 1.4 1.4 0 0 1-.4 0h-.4zm0-.3h.4a.9.9 0 0 0 .3 0 .6.6 0 0 0 .2-.1.4.4 0 0 0 .1-.4v-.1l-.1-.2a.7.7 0 0 0-.5 0h-.4v.8zm4.5 1h-.3a.1.1 0 0 1-.1 0l-.2-.5h-1.1l-.3.5a.1.1 0 0 1-.1 0h-.3l1-2.1h.4l1 2.2zm-1.7-.7h1l-.4-1a1.4 1.4 0 0 1-.1-.1v.2l-.5.8zm3.1-1.4 1.5 1.7V28h.3v2.2H39a.2.2 0 0 1-.1-.1l-1.5-1.6v1.7h-.3V28h.2zm4.2 1.3v.8h-.3v-.8l-1-1.3h.4l.6.9a1.3 1.3 0 0 1 .1.2V29a.8.8 0 0 1 .1-.1l.6-.9a.1.1 0 0 1 .1 0h.3l-.9 1.3zm-13.4-5 .5.1c2.2-.9 4-2.3 5.4-4s2-4 1.9-6l-2.5-2.2c.5 2.3.3 4.6-.6 6.8s-2.6 4-4.7 5.3z"
                style="" />
            <path fill=""
                d="M27.3 24.3h.1c2.2-1.4 4-3.4 5-5.6s1-4.7.4-7l-3.5-3a13.1 13.1 0 0 1-2 15.6zm11.9-7.4a10.9 10.9 0 0 1-4.1 6L33 24c1.7-.4 3.2-1.1 4.5-2.2s2.3-2.3 3-3.7l-1.4-1.2z"
                style="" />
            <path fill=""
                d="m38.6 16.5-2-1.7c0 2-.7 4-1.9 5.6s-2.9 3.1-5 4h1.4c2-.7 3.6-1.8 5-3.1s2.1-3 2.5-4.8zm-11-9.1-2.4-2.1c-2.1.7-4 2-5.3 3.6s-2 3.6-2 5.6c0 2.3.9 4.4 2.5 6.1s3.7 3 6.2 3.5c2.2-2.3 3.5-5.2 3.7-8.2s-.8-6-2.7-8.5zm16.6 8.8c0-2.6-1.3-5.1-3.4-7s-5-2.9-8-2.9c-1.4 0-2.8.2-4.1.7l14.7 12.7c.5-1.1.8-2.3.8-3.5z"
                style="" />
        </symbol>

        <symbol id="logo2" viewBox="0 0 64 32">
            <path fill=""
                d="M30.3 3.6h-.8a14.8 14.8 0 0 0-.8 0c-2.2.2-4.3.7-6.3 1.7H22v13.4l.6-.1a20.7 20.7 0 0 1 6.6-1.2v1.8h-.6a19.6 19.6 0 0 0-8.3 2.3V4.4a18.2 18.2 0 0 1 9.1-2.5h1.2c.7 0 1.5.2 2.2.4V4a13.5 13.5 0 0 0-2.6-.4zm3 1.8a19 19 0 0 0 5.8-.6c1.6-.3 3.1-1 4.5-1.7v16.8A18 18 0 0 1 31.1 22V5a13.8 13.8 0 0 0 2.2.4zm8.6.1-.6.2a20.7 20.7 0 0 1-8 1.2H33v13.7h.4a16.3 16.3 0 0 0 5.2-.5c1-.2 2.1-.6 3.1-1l.3-.2V5.5zM21.6 27.4a.9.9 0 0 0-.7-.3 1 1 0 0 0-.7.3 1 1 0 0 0-.3.6v2.3l.1.5a.8.8 0 0 0 .6.5h.3a1 1 0 0 0 1-1v-.2h-.6v.4a.4.4 0 0 1-.2.1.4.4 0 0 1-.2.1h-.2v-.1a.5.5 0 0 1-.2-.3v-2.1l.1-.4a.3.3 0 0 1 .3-.1.3.3 0 0 1 .3.1v.5h.7v-.2l-.1-.4a1 1 0 0 0-.2-.4zm3.5 0a1 1 0 0 0-.7-.3 1 1 0 0 0-.6.2 1 1 0 0 0-.3.8v2.6l.3.3.3.2a1 1 0 0 0 1-.2 1 1 0 0 0 .3-.7v-2.7a1 1 0 0 0-.3-.3zm-.2 2.9a.4.4 0 0 1-.2.3.4.4 0 0 1-.5 0 .4.4 0 0 1-.2-.3V28a.4.4 0 0 1 .2-.3.4.4 0 0 1 .5 0 .4.4 0 0 1 .2.3v2.2zm4.9 1V27h-.6l-.7 2.2-.8-2.2h-.6v4.2h.6v-2.6l.6 1.8h.3l.6-1.8v2.6h.6zm3.4-3.9a.8.8 0 0 0-.4-.2 1.3 1.3 0 0 0-.4 0h-.9v4h.6v-1.6H33a1 1 0 0 0 .4-.8 3 3 0 0 0 0-1 .9.9 0 0 0-.2-.4zm-.3 1.3v.2a.3.3 0 0 1-.2.1.6.6 0 0 1-.3 0H32v-1.3h.6l.1.2v.8zm3-1.6h-.4l-1 4.2h.7l.2-1h.8l.1 1h.6L36 27zm-.5 2.7.3-1.5.3 1.5h-.6zm4.4-.2-.9-2.5h-.6v4.2h.6v-2.5l1 2.5h.5V27h-.6v2.5zm3.6-2.5-.4 1.7-.5-1.7h-.6l.8 2.4v1.8h.6v-1.8l.8-2.4h-.7z"
                style="" />
        </symbol>

        <symbol id="logo1" viewBox="0 0 64 32">
            <path fill=""
                d="m23 4.3 4.2 4h-7.9v19.4H40v-7.4l4.2 4v-20H22.9zm16.7 15.5-12-11.3h12v11.3zm-3.8 5H22.6v-13h1V24h12.3v.9zm-10.2 5.5-.5 1-.5-1h-.4l.7 1.4v.8h.4v-.8l.7-1.4h-.4zm.7 2.1.1-.4h.9l.1.5h.4l-.8-2.2h-.3l-.8 2.2h.4zm.5-1.6.3.9h-.6l.3-1zm2 .8a.5.5 0 0 0 0 .3l.1.4.5.2c.2 0 .4 0 .6-.2v.2h.5l-.3-.4.2-.7h-.3l-.1.4-.4-.5h.1l.2-.3.1-.3a.4.4 0 0 0-.1-.3.5.5 0 0 0-.4-.1l-.4.1-.2.4v.2l.2.3-.3.3zm1 .5a.5.5 0 0 1-.4 0h-.2l-.1-.2c0-.2 0-.3.2-.4l.5.6zm-.4-1-.2-.3.1-.2H29.7c.1 0 0 .1 0 .2v.2l-.2.1zm3.5 1.2.2-.5H33l-.2.3h-.3L32 32l-.1-.5v-.2l.1-.6a.4.4 0 0 1 .4-.1h.3l.2.4h.3c0-.2 0-.4-.2-.5l-.6-.2a.8.8 0 0 0-.8.4V32l.3.4h.5l.6-.1zm2.2-.3v-1.2l-.3-.4-.5-.1a.8.8 0 0 0-.8.5l-.1.5v.1l.1.6.3.4h.5a.8.8 0 0 0 .8-.4zm-.4-1.2.1.5v.1l-.1.6-.4.2c-.2 0-.3 0-.4-.2l-.1-.6.1-.6c.1-.2.2-.2.4-.2s.3 0 .4.2z"
                style="" />
        </symbol>

        <symbol id="linkedlin" viewBox="0 0 32 32">
            <path fill=""
                d="M32 32V20.3c0-5.8-1.2-10.2-8-10.2a7 7 0 0 0-6.2 3.5h-.1v-3h-6.4V32H18V21.4c0-2.8.6-5.5 4-5.5s3.5 3.2 3.5 5.7V32H32zM.5 10.6h6.7V32H.5V10.6zM3.8 0C1.8 0 0 1.7 0 3.8s1.7 4 3.8 4a3.9 3.9 0 0 0 3.9-4A3.9 3.9 0 0 0 3.8 0z"
                style="" />
        </symbol>

        <symbol id="facebook" viewBox="0 0 18 32">
            <path fill=""
                d="M13.3 5.3h3v-5C15.7.1 14 0 12 0 7.8 0 4.9 2.6 4.9 7.5V12H.3v5.7h4.6V32h5.7V17.7h4.5l.7-5.7h-5.2V8c0-1.6.4-2.7 2.7-2.7z"
                style="" />
        </symbol>

        <symbol id="twitter" viewBox="0 0 36 32">
            <path fill=""
                d="M35.6 5A15.2 15.2 0 0 1 31.4 6a7.3 7.3 0 0 0 3.2-4c-1.4.8-3 1.4-4.7 1.8a7.3 7.3 0 0 0-12.4 6.6A20.6 20.6 0 0 1 2.5 3a7.3 7.3 0 0 0 2.2 9.7 7.2 7.2 0 0 1-3.3-.9v.1A7.3 7.3 0 0 0 7.3 19 7.3 7.3 0 0 1 4 19c1 3 3.6 5 6.8 5.2a14.7 14.7 0 0 1-10.8 3 20.5 20.5 0 0 0 11.2 3.2A20.6 20.6 0 0 0 31.9 9.7v-1A14.6 14.6 0 0 0 35.6 5z"
                style="" />
        </symbol>

        <symbol id="astronauta" viewBox="0 0 32 32">
            <path fill="#afb1b8"
                d="M32 4.5a.5.5 0 0 0-.5-.3l-1.9-.3-.8-1.8c-.2-.3-.8-.3-1 0L27 4l-2 .3a.5.5 0 0 0-.2.9L26 6.4l-.3 2c0 .1 0 .3.2.4.2.2.4.2.6 0l1.7-.8 1.7.9a.5.5 0 0 0 .8-.6l-.3-1.9 1.3-1.3c.2-.2.2-.4.2-.6zm-2.5 1.3a.5.5 0 0 0-.1.5l.2 1.1-1-.5a.5.5 0 0 0-.6 0l-1 .5.3-1a.5.5 0 0 0-.2-.6l-.8-.7 1.1-.2a.5.5 0 0 0 .4-.3l.5-1 .5 1c0 .2.2.3.4.3l1.1.2-.8.8zm-3.4 14.7h-1v1h1v-1zm0 2.2h-1v1h1v-1zm1.1-1.1h-1v1h1v-1zm-2.1 0H24v1h1v-1zm-2.7 4.8h-1v1h1v-1zm0 2.1h-1v1h1v-1zm1-1h-1v1h1v-1zm-2 0h-1.1v1h1v-1zM16 24.3h-1v1h1v-1zm0 2h-1v1.2h1v-1.1zm1-1h-1v1h1v-1zm-2 0h-1.1v1h1v-1zM5.8 6.1H4.8v1.1h1v-1zm0 2.2H4.8v1h1v-1zm1-1.1H6v1h1v-1zm-2.1 0h-1v1h1v-1z"
                style="fill:var(--color2, #2196F3)" />
            <path fill=""
                d="M24.7 14.2c-.3-.4-.7-.7-1.2-.7-.4-.1-1 0-1.3.3l-1.3 1-1.9 1.4-1.3-.6a7 7 0 0 0-2.9-13.2 7 7 0 0 0-7 7c0 1.3.5 2.6 1.2 3.7H6l-3.3 1.6-1.8 1a1.8 1.8 0 0 0 .9 3.2c.3 0 .6 0 .8-.2L4 18l2.3-1.2h1.3l-5.4 5.4-1.3 1.4a1.6 1.6 0 0 0 0 2.3 1.7 1.7 0 0 0 2.3 0l1.3-1.3 1.8-1.3.9.9-1.8 1.7-1.3 1.4a1.6 1.6 0 0 0 0 2.3 1.7 1.7 0 0 0 2.3 0l3.5-3.4 1-1 5.2-5.7 3.5.5h.2l.1-.1 3.3-2.1 1.3-1.3c.7-.6.8-1.6.2-2.3zM2.1 17.8a.7.7 0 0 1-.5 0 .7.7 0 0 1-.2-1.2l1.3-.7.4 1.3-1 .6zm3.5-1.9-1.5.8-.4-1.2 2-1v1.4zm15.1-6.6c0 1-.2 1.8-.6 2.6l-4.1-2a1.9 1.9 0 0 0-.8-1.3l1.4-4.9a5.9 5.9 0 0 1 4.1 5.6zM9 9.3a5.9 5.9 0 0 1 6.7-5.8l-1.4 4.8H14a1.9 1.9 0 1 0 0 3.7c.7 0 1.3-.4 1.6-1l3.9 1.8A5.9 5.9 0 0 1 8.9 9.3zm6 .8a.8.8 0 0 1-1.6 0 .8.8 0 0 1 1.6 0zm-12.4 15a.6.6 0 0 1-.9 0 .6.6 0 0 1 0-.8l1-1 .8.9-1 1zM5.7 29a.6.6 0 0 1-.9 0 .6.6 0 0 1 0-.9l1-1 .8 1-1 .9zm3.5-3.5-1.8 1.8-.9-.9 1.8-1.7.1-.2V24a.6.6 0 0 0 0-.2l-1.7-1.6a.5.5 0 0 0-.1 0 .5.5 0 0 0-.1-.1.5.5 0 0 0-.1 0 .5.5 0 0 0-.1 0h-.1a.5.5 0 0 0-.1 0H6l-1.8 1.4-.9-1 2.4-2.3 4.4 4.3-1 1zm6.8-7a.6.6 0 0 0-.4 0 .5.5 0 0 0 0 .1l-4.8 5.2-4.3-4.2 2.8-2.9a.5.5 0 0 0-.4-.9H6.7v-1.6h3.1a7 7 0 0 0 6.3 2l.1.1 2.4 1 .2.7.2 1-3-.5zm4 .2-.3-1.6 1.5-1 .9 1.2-2 1.4zm3.8-2.9-.9.8-.9-1.2.8-.6a.7.7 0 0 1 .6-.2.7.7 0 0 1 .4 1.2z"
                style="" />
            <path fill=""
                d="m13.6 18.5-2.1-2a.5.5 0 0 0-.8 0l-2.1 2a.5.5 0 0 0 0 .8l2.1 2.1a.5.5 0 0 0 .8 0l2.1-2.1a.5.5 0 0 0 0-.8zm-2.5 1.8-1.4-1.4 1.4-1.4 1.4 1.4-1.4 1.4zm6-15.2L17 6s1.7.5 1.7 2.2h1.1c0-2-1.6-3-2.5-3.2zm2.6 4.2h-1v1h1v-1z"
                style="" />
        </symbol>

        <symbol id="celular" viewBox="0 0 20 32">
            <path fill=""
                d="M17 0H3a3 3 0 0 0-3 3v26a3 3 0 0 0 3 3h14a3 3 0 0 0 3-3V3a3 3 0 0 0-3-3zM3 2h14a1 1 0 0 1 1 1v21H2V3a1 1 0 0 1 1-1zm14 28H3a1 1 0 0 1-1-1v-3h16v3a1 1 0 0 1-1 1z"
                style="" />
        </symbol>

        <symbol id="sobre" viewBox="0 0 43 32">
            <path fill=""
                d="M38.7 0H4a4 4 0 0 0-4 4v24a4 4 0 0 0 4 4h34.7a4 4 0 0 0 4-4V4a4 4 0 0 0-4-4zm0 2.7h.5L21.3 18.3 3.5 2.8l.5-.1h34.7zm0 26.6H4c-.7 0-1.3-.6-1.3-1.3V5.6L20.5 21a1.3 1.3 0 0 0 1.7 0L40 5.6V28c0 .7-.6 1.3-1.3 1.3z"
                style="" />
        </symbol>
    </defs>
</svg>